<svg width="5338" height="3056" xmlns="http://www.w3.org/2000/svg">
 <image href="czmap.svg" width="5338" height="3056" />
 <defs>
  <linearGradient id="legendGrad" x1="0%" y1="0%" x2="100%" y2="0%">
   <stop offset="0%" stop-color="rgb(0,0,255)"/>
   <stop offset="50%" stop-color="rgb(255,255,0)"/>
   <stop offset="100%" stop-color="rgb(255,0,0)"/>
  </linearGradient>
 </defs>
 <rect x="50" y="50" width="300" height="30" fill="url(#legendGrad)"/>
 <text x="50" y="100">-28.8</text>
 <text x="335" y="100">32.2</text><circle cx ="4500.673" cy="2429.2778" r="20" fill="rgb(255, 145, 0)"/>
<circle cx ="4659.8335" cy="2388.1194" r="20" fill="rgb(255, 157, 0)"/>
<circle cx ="3806.5066" cy="1762.8494" r="20" fill="rgb(255, 166, 0)"/>
<circle cx ="4391.3047" cy="1994.1387" r="20" fill="rgb(255, 150, 0)"/>
<circle cx ="3968.7444" cy="2647.4546" r="20" fill="rgb(255, 143, 0)"/>
<circle cx ="4317.2085" cy="2087.6255" r="20" fill="rgb(255, 149, 0)"/>
<circle cx ="3940.4158" cy="2092.3606" r="20" fill="rgb(255, 148, 0)"/>
<circle cx ="4489.7046" cy="2372.2144" r="20" fill="rgb(255, 152, 0)"/>
<circle cx ="3779.756" cy="1755.4432" r="20" fill="rgb(255, 161, 0)"/>
<circle cx ="4163.1772" cy="2110.5723" r="20" fill="rgb(255, 147, 0)"/>
<circle cx ="4468.478" cy="2350.9673" r="20" fill="rgb(255, 156, 0)"/>
<circle cx ="3877.5251" cy="1906.8436" r="20" fill="rgb(255, 157, 0)"/>
<circle cx ="3954.225" cy="1910.8503" r="20" fill="rgb(255, 146, 0)"/>
<circle cx ="3731.5427" cy="1894.3383" r="20" fill="rgb(255, 167, 0)"/>
<circle cx ="4631.1104" cy="2386.0554" r="20" fill="rgb(255, 159, 0)"/>
<circle cx ="4212.259" cy="2374.6426" r="20" fill="rgb(255, 147, 0)"/>
<circle cx ="4418.055" cy="2592.455" r="20" fill="rgb(255, 158, 0)"/>
<circle cx ="4131.614" cy="2596.826" r="20" fill="rgb(255, 147, 0)"/>
<circle cx ="4530.738" cy="2203.5737" r="20" fill="rgb(255, 158, 0)"/>
<circle cx ="4412.61" cy="2197.8672" r="20" fill="rgb(255, 150, 0)"/>
<circle cx ="3605.761" cy="1880.8616" r="20" fill="rgb(255, 158, 0)"/>
<circle cx ="3969.849" cy="2285.8906" r="20" fill="rgb(255, 155, 0)"/>
<circle cx ="3498.523" cy="2628.2715" r="20" fill="rgb(255, 142, 0)"/>
<circle cx ="3624.62" cy="2280.5486" r="20" fill="rgb(255, 145, 0)"/>
<circle cx ="3947.0442" cy="2423.2073" r="20" fill="rgb(255, 149, 0)"/>
<circle cx ="3547.6836" cy="2223.485" r="20" fill="rgb(255, 148, 0)"/>
<circle cx ="3272.9998" cy="1849.1731" r="20" fill="rgb(255, 166, 0)"/>
<circle cx ="3523.695" cy="2211.5867" r="20" fill="rgb(255, 143, 0)"/>
<circle cx ="3822.604" cy="2590.391" r="20" fill="rgb(255, 151, 0)"/>
<circle cx ="3363.9822" cy="2074.7559" r="20" fill="rgb(255, 163, 0)"/>
<circle cx ="3181.7803" cy="2358.1306" r="20" fill="rgb(255, 150, 0)"/>
<circle cx ="3311.8232" cy="2749.683" r="20" fill="rgb(255, 141, 0)"/>
<circle cx ="3448.573" cy="2021.4562" r="20" fill="rgb(255, 144, 0)"/>
<circle cx ="3369.1904" cy="2777.2437" r="20" fill="rgb(255, 144, 0)"/>
<circle cx ="2673.2876" cy="2000.5734" r="20" fill="rgb(255, 165, 0)"/>
<circle cx ="2713.3738" cy="2003.2444" r="20" fill="rgb(255, 164, 0)"/>
<circle cx ="2632.9648" cy="2281.1555" r="20" fill="rgb(255, 162, 0)"/>
<circle cx ="3771.234" cy="2548.0183" r="20" fill="rgb(255, 141, 0)"/>
<circle cx ="3143.9038" cy="2617.1016" r="20" fill="rgb(255, 147, 0)"/>
<circle cx ="3706.3704" cy="2721.637" r="20" fill="rgb(255, 144, 0)"/>
<circle cx ="3567.8057" cy="1906.6008" r="20" fill="rgb(255, 161, 0)"/>
<circle cx ="3495.6821" cy="1924.327" r="20" fill="rgb(255, 161, 0)"/>
<circle cx ="2924.4565" cy="2414.4656" r="20" fill="rgb(255, 156, 0)"/>
<circle cx ="3587.296" cy="2715.5664" r="20" fill="rgb(255, 140, 0)"/>
<circle cx ="3189.04" cy="2219.1143" r="20" fill="rgb(255, 163, 0)"/>
<circle cx ="3320.1086" cy="1704.2076" r="20" fill="rgb(255, 169, 0)"/>
<circle cx ="3971.9795" cy="2255.1736" r="20" fill="rgb(255, 148, 0)"/>
<circle cx ="3483.4512" cy="2501.7605" r="20" fill="rgb(255, 145, 0)"/>
<circle cx ="3170.8909" cy="2267.072" r="20" fill="rgb(255, 155, 0)"/>
<circle cx ="4031.872" cy="2299.3674" r="20" fill="rgb(255, 151, 0)"/>
<circle cx ="3409.5918" cy="2048.7737" r="20" fill="rgb(255, 157, 0)"/>
<circle cx ="3476.8228" cy="2262.8225" r="20" fill="rgb(255, 148, 0)"/>
<circle cx ="3052.6846" cy="1845.1665" r="20" fill="rgb(255, 165, 0)"/>
<circle cx ="3082.5122" cy="2046.1028" r="20" fill="rgb(255, 163, 0)"/>
<circle cx ="3726.2556" cy="2585.413" r="20" fill="rgb(255, 144, 0)"/>
<circle cx ="3886.0474" cy="2395.8896" r="20" fill="rgb(255, 139, 0)"/>
<circle cx ="3031.2212" cy="1791.1383" r="20" fill="rgb(255, 166, 0)"/>
<circle cx ="1235.7941" cy="2485.2488" r="20" fill="rgb(255, 194, 0)"/>
<circle cx ="1405.4492" cy="1968.5209" r="20" fill="rgb(255, 166, 0)"/>
<circle cx ="1589.624" cy="2798.2478" r="20" fill="rgb(255, 177, 0)"/>
<circle cx ="1629.0787" cy="2332.7556" r="20" fill="rgb(255, 157, 0)"/>
<circle cx ="1192.236" cy="2391.5188" r="20" fill="rgb(255, 188, 0)"/>
<circle cx ="1158.9362" cy="2412.2803" r="20" fill="rgb(255, 205, 0)"/>
<circle cx ="1102.9894" cy="2150.6382" r="20" fill="rgb(255, 169, 0)"/>
<circle cx ="1491.8552" cy="2426.2427" r="20" fill="rgb(255, 164, 0)"/>
<circle cx ="1364.2585" cy="1909.8789" r="20" fill="rgb(255, 160, 0)"/>
<circle cx ="1582.3643" cy="2591.8481" r="20" fill="rgb(255, 170, 0)"/>
<circle cx ="1342.5585" cy="2567.8083" r="20" fill="rgb(255, 183, 0)"/>
<circle cx ="1615.4274" cy="2483.913" r="20" fill="rgb(255, 160, 0)"/>
<circle cx ="1546.6184" cy="2592.0908" r="20" fill="rgb(255, 175, 0)"/>
<circle cx ="1465.105" cy="2735.8423" r="20" fill="rgb(255, 180, 0)"/>
<circle cx ="1836.2161" cy="2538.9126" r="20" fill="rgb(255, 160, 0)"/>
<circle cx ="1665.456" cy="2233.6838" r="20" fill="rgb(255, 154, 0)"/>
<circle cx ="1391.4824" cy="1741.2382" r="20" fill="rgb(255, 167, 0)"/>
<circle cx ="1454.1366" cy="2017.4497" r="20" fill="rgb(255, 151, 0)"/>
<circle cx ="1639.8104" cy="1731.5253" r="20" fill="rgb(255, 157, 0)"/>
<circle cx ="1418.6272" cy="2150.6382" r="20" fill="rgb(255, 157, 0)"/>
<circle cx ="1123.8214" cy="2194.2249" r="20" fill="rgb(255, 167, 0)"/>
<circle cx ="1767.565" cy="2235.3833" r="20" fill="rgb(255, 155, 0)"/>
<circle cx ="1325.9086" cy="2400.8677" r="20" fill="rgb(255, 171, 0)"/>
<circle cx ="1173.7711" cy="2107.537" r="20" fill="rgb(255, 160, 0)"/>
<circle cx ="1629.0787" cy="2292.3254" r="20" fill="rgb(255, 160, 0)"/>
<circle cx ="1408.0533" cy="2585.1704" r="20" fill="rgb(255, 182, 0)"/>
<circle cx ="1602.723" cy="2009.0721" r="20" fill="rgb(255, 159, 0)"/>
<circle cx ="1405.4492" cy="1786.4033" r="20" fill="rgb(255, 164, 0)"/>
<circle cx ="1892.084" cy="2150.6382" r="20" fill="rgb(255, 163, 0)"/>
<circle cx ="2013.5256" cy="2217.4146" r="20" fill="rgb(255, 163, 0)"/>
<circle cx ="2129.049" cy="2698.326" r="20" fill="rgb(255, 161, 0)"/>
<circle cx ="1867.9377" cy="2505.1602" r="20" fill="rgb(255, 154, 0)"/>
<circle cx ="2257.6716" cy="2021.8204" r="20" fill="rgb(255, 165, 0)"/>
<circle cx ="1748.0742" cy="2716.4165" r="20" fill="rgb(255, 162, 0)"/>
<circle cx ="1887.665" cy="2423.2073" r="20" fill="rgb(255, 159, 0)"/>
<circle cx ="2071.3662" cy="2801.6472" r="20" fill="rgb(255, 169, 0)"/>
<circle cx ="2286.6313" cy="2292.3254" r="20" fill="rgb(255, 162, 0)"/>
<circle cx ="1658.6698" cy="1767.2203" r="20" fill="rgb(255, 156, 0)"/>
<circle cx ="1738.8418" cy="2590.5125" r="20" fill="rgb(255, 152, 0)"/>
<circle cx ="1865.8071" cy="1847.1091" r="20" fill="rgb(255, 162, 0)"/>
<circle cx ="1744.6022" cy="2057.637" r="20" fill="rgb(255, 159, 0)"/>
<circle cx ="2495.268" cy="2152.7021" r="20" fill="rgb(255, 166, 0)"/>
<circle cx ="1883.3251" cy="2657.2888" r="20" fill="rgb(255, 159, 0)"/>
<circle cx ="1942.9016" cy="2473.4717" r="20" fill="rgb(255, 163, 0)"/>
<circle cx ="2025.5989" cy="1972.2844" r="20" fill="rgb(255, 160, 0)"/>
<circle cx ="2107.1123" cy="2463.6372" r="20" fill="rgb(255, 159, 0)"/>
<circle cx ="1745.628" cy="2938.8423" r="20" fill="rgb(255, 172, 0)"/>
<circle cx ="1176.1384" cy="2514.1445" r="20" fill="rgb(255, 180, 0)"/>
<circle cx ="1295.6863" cy="2584.442" r="20" fill="rgb(255, 187, 0)"/>
<circle cx ="1386.4321" cy="2751.99" r="20" fill="rgb(255, 193, 0)"/>
<circle cx ="1039.3883" cy="2455.26" r="20" fill="rgb(255, 206, 0)"/>
<circle cx ="3141.4578" cy="693.6987" r="20" fill="rgb(255, 167, 0)"/>
<circle cx ="3123.9395" cy="819.48114" r="20" fill="rgb(255, 138, 0)"/>
<circle cx ="3023.0935" cy="754.40454" r="20" fill="rgb(255, 164, 0)"/>
<circle cx ="2904.7292" cy="491.42697" r="20" fill="rgb(255, 176, 0)"/>
<circle cx ="3009.9944" cy="835.3861" r="20" fill="rgb(255, 157, 0)"/>
<circle cx ="2716.9246" cy="325.45728" r="20" fill="rgb(255, 204, 0)"/>
<circle cx ="2837.3403" cy="367.5871" r="20" fill="rgb(255, 206, 0)"/>
<circle cx ="2865.2744" cy="410.4454" r="20" fill="rgb(255, 186, 0)"/>
<circle cx ="2957.1252" cy="458.64584" r="20" fill="rgb(255, 187, 0)"/>
<circle cx ="2746.9102" cy="390.16968" r="20" fill="rgb(255, 194, 0)"/>
<circle cx ="3192.0386" cy="481.95685" r="20" fill="rgb(255, 171, 0)"/>
<circle cx ="2996.8164" cy="592.5628" r="20" fill="rgb(255, 164, 0)"/>
<circle cx ="3084.9585" cy="645.49835" r="20" fill="rgb(255, 164, 0)"/>
<circle cx ="2943.5527" cy="827.00867" r="20" fill="rgb(255, 151, 0)"/>
<circle cx ="2720.6335" cy="349.7396" r="20" fill="rgb(255, 215, 0)"/>
<circle cx ="2792.2832" cy="502.47543" r="20" fill="rgb(255, 160, 0)"/>
<circle cx ="3002.1824" cy="457.79596" r="20" fill="rgb(255, 154, 0)"/>
<circle cx ="3154.6353" cy="1148.2639" r="20" fill="rgb(255, 152, 0)"/>
<circle cx ="3354.1187" cy="892.0853" r="20" fill="rgb(255, 175, 0)"/>
<circle cx ="3286.1775" cy="1118.6394" r="20" fill="rgb(255, 157, 0)"/>
<circle cx ="3549.1829" cy="1219.8967" r="20" fill="rgb(255, 165, 0)"/>
<circle cx ="3693.824" cy="1159.1909" r="20" fill="rgb(255, 168, 0)"/>
<circle cx ="3382.2102" cy="911.87537" r="20" fill="rgb(255, 186, 0)"/>
<circle cx ="3519.1184" cy="1169.9965" r="20" fill="rgb(255, 170, 0)"/>
<circle cx ="3329.8933" cy="835.2647" r="20" fill="rgb(255, 163, 0)"/>
<circle cx ="3436.1057" cy="1059.9976" r="20" fill="rgb(255, 165, 0)"/>
<circle cx ="3287.4402" cy="1050.8917" r="20" fill="rgb(255, 153, 0)"/>
<circle cx ="3378.186" cy="1300.7568" r="20" fill="rgb(255, 161, 0)"/>
<circle cx ="3434.7642" cy="1176.067" r="20" fill="rgb(255, 161, 0)"/>
<circle cx ="3338.7312" cy="526.75775" r="20" fill="rgb(255, 167, 0)"/>
<circle cx ="2596.9824" cy="1381.0099" r="20" fill="rgb(255, 150, 0)"/>
<circle cx ="2904.7292" cy="1321.0326" r="20" fill="rgb(255, 152, 0)"/>
<circle cx ="2812.7207" cy="1604.2859" r="20" fill="rgb(255, 163, 0)"/>
<circle cx ="2591.6165" cy="1331.9596" r="20" fill="rgb(255, 150, 0)"/>
<circle cx ="2789.6792" cy="1080.5161" r="20" fill="rgb(255, 153, 0)"/>
<circle cx ="3399.255" cy="1477.5321" r="20" fill="rgb(255, 160, 0)"/>
<circle cx ="2742.097" cy="805.39746" r="20" fill="rgb(255, 151, 0)"/>
<circle cx ="2952.075" cy="962.13983" r="20" fill="rgb(255, 157, 0)"/>
<circle cx ="2948.2874" cy="1044.6997" r="20" fill="rgb(255, 149, 0)"/>
<circle cx ="3229.7573" cy="1361.4626" r="20" fill="rgb(255, 144, 0)"/>
<circle cx ="2575.9924" cy="734.2502" r="20" fill="rgb(255, 149, 0)"/>
<circle cx ="2470.727" cy="1219.8967" r="20" fill="rgb(255, 151, 0)"/>
<circle cx ="2869.22" cy="1476.5609" r="20" fill="rgb(255, 170, 0)"/>
<circle cx ="2751.2502" cy="738.25684" r="20" fill="rgb(255, 153, 0)"/>
<circle cx ="2842.7063" cy="1570.8977" r="20" fill="rgb(255, 155, 0)"/>
<circle cx ="3326.0269" cy="1424.2324" r="20" fill="rgb(255, 158, 0)"/>
<circle cx ="2523.3599" cy="1017.5035" r="20" fill="rgb(255, 153, 0)"/>
<circle cx ="2733.811" cy="1240.4153" r="20" fill="rgb(255, 141, 0)"/>
<circle cx ="2687.5703" cy="966.8748" r="20" fill="rgb(255, 148, 0)"/>
<circle cx ="2870.798" cy="1240.7795" r="20" fill="rgb(255, 150, 0)"/>
<circle cx ="3080.7761" cy="1148.021" r="20" fill="rgb(255, 156, 0)"/>
<circle cx ="2375.6414" cy="1083.9156" r="20" fill="rgb(255, 148, 0)"/>
<circle cx ="2720.6335" cy="1219.8967" r="20" fill="rgb(255, 154, 0)"/>
<circle cx ="2577.4915" cy="1130.7806" r="20" fill="rgb(255, 145, 0)"/>
<circle cx ="2797.8857" cy="1448.879" r="20" fill="rgb(255, 152, 0)"/>
<circle cx ="3069.571" cy="1447.5435" r="20" fill="rgb(255, 148, 0)"/>
<circle cx ="2602.1113" cy="797.5056" r="20" fill="rgb(255, 160, 0)"/>
<circle cx ="2918.696" cy="993.8282" r="20" fill="rgb(255, 145, 0)"/>
<circle cx ="3102.634" cy="1581.946" r="20" fill="rgb(255, 171, 0)"/>
<circle cx ="2547.3481" cy="1518.9335" r="20" fill="rgb(255, 150, 0)"/>
<circle cx ="2870.798" cy="366.98007" r="20" fill="rgb(255, 217, 0)"/>
<circle cx ="647.28723" cy="1934.5255" r="20" fill="rgb(255, 158, 0)"/>
<circle cx ="865.393" cy="2220.8142" r="20" fill="rgb(255, 171, 0)"/>
<circle cx ="946.5119" cy="1998.2666" r="20" fill="rgb(255, 156, 0)"/>
<circle cx ="817.57385" cy="2041.732" r="20" fill="rgb(255, 161, 0)"/>
<circle cx ="509.66907" cy="1813.4781" r="20" fill="rgb(255, 168, 0)"/>
<circle cx ="1168.721" cy="1886.5679" r="20" fill="rgb(255, 163, 0)"/>
<circle cx ="1007.1933" cy="1545.6442" r="20" fill="rgb(255, 147, 0)"/>
<circle cx ="1014.45294" cy="1518.6907" r="20" fill="rgb(255, 165, 0)"/>
<circle cx ="921.0241" cy="1653.2148" r="20" fill="rgb(255, 159, 0)"/>
<circle cx ="1005.2206" cy="1583.0388" r="20" fill="rgb(255, 150, 0)"/>
<circle cx ="762.81067" cy="1802.9153" r="20" fill="rgb(255, 159, 0)"/>
<circle cx ="317.36673" cy="1298.8142" r="20" fill="rgb(255, 176, 0)"/>
<circle cx ="1159.2518" cy="1080.0305" r="20" fill="rgb(255, 152, 0)"/>
<circle cx ="1209.2014" cy="1084.7656" r="20" fill="rgb(255, 161, 0)"/>
<circle cx ="690.92413" cy="1399.9501" r="20" fill="rgb(255, 169, 0)"/>
<circle cx ="1098.4126" cy="1273.8035" r="20" fill="rgb(255, 157, 0)"/>
<circle cx ="649.49664" cy="1173.0317" r="20" fill="rgb(255, 171, 0)"/>
<circle cx ="486.15408" cy="1348.7145" r="20" fill="rgb(255, 173, 0)"/>
<circle cx ="481.81403" cy="1296.386" r="20" fill="rgb(255, 168, 0)"/>
<circle cx ="468.39944" cy="1272.1036" r="20" fill="rgb(255, 178, 0)"/>
<circle cx ="455.4583" cy="1661.7136" r="20" fill="rgb(255, 171, 0)"/>
<circle cx ="706.46936" cy="1558.3922" r="20" fill="rgb(255, 160, 0)"/>
<circle cx ="411.90024" cy="1504.1212" r="20" fill="rgb(255, 164, 0)"/>
<circle cx ="697.23694" cy="1189.1796" r="20" fill="rgb(255, 176, 0)"/>
<circle cx ="1302.078" cy="1436.495" r="20" fill="rgb(255, 161, 0)"/>
<circle cx ="61.147694" cy="992.2499" r="20" fill="rgb(255, 170, 0)"/>
<circle cx ="226.2263" cy="1170.6036" r="20" fill="rgb(255, 162, 0)"/>
<circle cx ="196.63525" cy="1118.6394" r="20" fill="rgb(255, 168, 0)"/>
<circle cx ="686.50525" cy="782.4506" r="20" fill="rgb(255, 196, 0)"/>
<circle cx ="421.2905" cy="1020.9031" r="20" fill="rgb(255, 169, 0)"/>
<circle cx ="639.8697" cy="1015.1967" r="20" fill="rgb(255, 169, 0)"/>
<circle cx ="611.3834" cy="983.6297" r="20" fill="rgb(255, 160, 0)"/>
<circle cx ="420.18573" cy="1251.9493" r="20" fill="rgb(255, 160, 0)"/>
<circle cx ="512.2731" cy="875.57336" r="20" fill="rgb(255, 176, 0)"/>
<circle cx ="505.25018" cy="756.83276" r="20" fill="rgb(255, 184, 0)"/>
<circle cx ="390.5947" cy="873.8736" r="20" fill="rgb(255, 180, 0)"/>
<circle cx ="423.81558" cy="1045.4282" r="20" fill="rgb(255, 155, 0)"/>
<circle cx ="482.20862" cy="966.8748" r="20" fill="rgb(255, 171, 0)"/>
<circle cx ="4498.3057" cy="1761.1498" r="20" fill="rgb(255, 153, 0)"/>
<circle cx ="5079.1587" cy="1863.9854" r="20" fill="rgb(255, 181, 0)"/>
<circle cx ="5068.427" cy="1923.7198" r="20" fill="rgb(255, 169, 0)"/>
<circle cx ="3785.9111" cy="734.2502" r="20" fill="rgb(255, 158, 0)"/>
<circle cx ="4371.814" cy="1380.0387" r="20" fill="rgb(255, 163, 0)"/>
<circle cx ="4916.921" cy="1357.0918" r="20" fill="rgb(255, 149, 0)"/>
<circle cx ="4292.431" cy="1530.8319" r="20" fill="rgb(255, 172, 0)"/>
<circle cx ="4748.4487" cy="1270.4039" r="20" fill="rgb(255, 140, 0)"/>
<circle cx ="4903.1113" cy="1664.9916" r="20" fill="rgb(255, 144, 0)"/>
<circle cx ="4827.0425" cy="1806.6791" r="20" fill="rgb(255, 159, 0)"/>
<circle cx ="4318.313" cy="1396.1864" r="20" fill="rgb(255, 157, 0)"/>
<circle cx ="5160.2773" cy="1827.926" r="20" fill="rgb(255, 166, 0)"/>
<circle cx ="4613.987" cy="1635.9742" r="20" fill="rgb(255, 148, 0)"/>
<circle cx ="5248.814" cy="1778.633" r="20" fill="rgb(255, 160, 0)"/>
<circle cx ="3819.2112" cy="805.03314" r="20" fill="rgb(255, 149, 0)"/>
<circle cx ="5148.8354" cy="1711.6138" r="20" fill="rgb(255, 176, 0)"/>
<circle cx ="4012.776" cy="984.1153" r="20" fill="rgb(255, 166, 0)"/>
<circle cx ="5060.93" cy="1419.4973" r="20" fill="rgb(255, 148, 0)"/>
<circle cx ="4109.44" cy="1170.2393" r="20" fill="rgb(255, 180, 0)"/>
<circle cx ="4428.55" cy="1161.8619" r="20" fill="rgb(255, 157, 0)"/>
<circle cx ="5003.0894" cy="1587.1669" r="20" fill="rgb(255, 154, 0)"/>
<circle cx ="5007.272" cy="1811.4142" r="20" fill="rgb(255, 199, 0)"/>
<circle cx ="4699.9194" cy="1817.1205" r="20" fill="rgb(255, 157, 0)"/>
<circle cx ="4748.607" cy="1631.6035" r="20" fill="rgb(255, 152, 0)"/>
<circle cx ="5276.1953" cy="1725.6975" r="20" fill="rgb(255, 156, 0)"/>
<circle cx ="4557.8823" cy="1344.5864" r="20" fill="rgb(255, 156, 0)"/>
<circle cx ="4904.5317" cy="1448.5148" r="20" fill="rgb(255, 141, 0)"/>
<circle cx ="4429.4966" cy="929.8443" r="20" fill="rgb(255, 144, 0)"/>
<circle cx ="4843.5347" cy="1496.351" r="20" fill="rgb(255, 149, 0)"/>
<circle cx ="4779.697" cy="1472.4329" r="20" fill="rgb(255, 153, 0)"/>
<circle cx ="4046.3123" cy="1159.7979" r="20" fill="rgb(255, 217, 0)"/>
<circle cx ="4105.494" cy="981.4443" r="20" fill="rgb(255, 175, 0)"/>
<circle cx ="5139.2085" cy="1632.9391" r="20" fill="rgb(255, 153, 0)"/>
<circle cx ="4085.5305" cy="1338.8801" r="20" fill="rgb(255, 172, 0)"/>
<circle cx ="4090.8176" cy="1315.6904" r="20" fill="rgb(255, 175, 0)"/>
<circle cx ="3950.516" cy="1032.68" r="20" fill="rgb(255, 198, 0)"/>
<circle cx ="5078.685" cy="1491.9801" r="20" fill="rgb(255, 155, 0)"/>
<circle cx ="4181.3267" cy="1220.1395" r="20" fill="rgb(255, 175, 0)"/>
<circle cx ="3852.7473" cy="857.1187" r="20" fill="rgb(255, 162, 0)"/>
<circle cx ="4012.3025" cy="811.1037" r="20" fill="rgb(255, 146, 0)"/>
<circle cx ="4460.903" cy="1532.7744" r="20" fill="rgb(255, 162, 0)"/>
<circle cx ="4303.005" cy="1076.1454" r="20" fill="rgb(255, 158, 0)"/>
<circle cx ="4178.722" cy="936.522" r="20" fill="rgb(255, 156, 0)"/>
<circle cx ="3779.993" cy="1618.3698" r="20" fill="rgb(255, 163, 0)"/>
<circle cx ="3992.4172" cy="1166.2328" r="20" fill="rgb(255, 204, 0)"/>
<circle cx ="3837.6758" cy="1473.1613" r="20" fill="rgb(255, 152, 0)"/>
<circle cx ="3823.1565" cy="1148.9923" r="20" fill="rgb(255, 166, 0)"/>
<circle cx ="3643.6375" cy="1709.5498" r="20" fill="rgb(255, 160, 0)"/>
<circle cx ="4285.1714" cy="1743.9093" r="20" fill="rgb(255, 162, 0)"/>
<circle cx ="3554.4697" cy="1363.1624" r="20" fill="rgb(255, 157, 0)"/>
<circle cx ="3807.848" cy="1420.4688" r="20" fill="rgb(255, 161, 0)"/>
<circle cx ="3827.97" cy="1682.5964" r="20" fill="rgb(255, 158, 0)"/>
<circle cx ="3894.8062" cy="1524.5184" r="20" fill="rgb(255, 146, 0)"/>
<circle cx ="4035.8174" cy="1752.7722" r="20" fill="rgb(255, 151, 0)"/>
<circle cx ="4051.5994" cy="1775.3549" r="20" fill="rgb(255, 147, 0)"/>
<circle cx ="3860.007" cy="1006.0908" r="20" fill="rgb(255, 179, 0)"/>
<circle cx ="4047.1807" cy="1493.6798" r="20" fill="rgb(255, 151, 0)"/>
<circle cx ="3732.884" cy="1076.9952" r="20" fill="rgb(255, 181, 0)"/>
<circle cx ="4099.34" cy="1594.2087" r="20" fill="rgb(255, 143, 0)"/>
<circle cx ="3678.831" cy="1313.0194" r="20" fill="rgb(255, 167, 0)"/>
<circle cx ="3820.079" cy="1025.6381" r="20" fill="rgb(255, 173, 0)"/>
<circle cx ="3611.6792" cy="1509.5848" r="20" fill="rgb(255, 163, 0)"/>
<circle cx ="3838.307" cy="1293.3507" r="20" fill="rgb(255, 161, 0)"/>
<circle cx ="3625.646" cy="1483.967" r="20" fill="rgb(255, 157, 0)"/>
<circle cx ="3772.7332" cy="1402.014" r="20" fill="rgb(255, 154, 0)"/>
<circle cx ="4903.1113" cy="1960.7504" r="20" fill="rgb(255, 165, 0)"/>
<circle cx ="4551.9644" cy="2041.1249" r="20" fill="rgb(255, 163, 0)"/>
<circle cx ="4450.0923" cy="1811.7783" r="20" fill="rgb(255, 156, 0)"/>
<circle cx ="4783.2476" cy="2135.4617" r="20" fill="rgb(255, 166, 0)"/>
<circle cx ="4553.937" cy="1987.8253" r="20" fill="rgb(255, 150, 0)"/>
<circle cx ="4518.6646" cy="2030.9264" r="20" fill="rgb(255, 158, 0)"/>
<circle cx ="4349.483" cy="1717.0771" r="20" fill="rgb(255, 167, 0)"/>
<circle cx ="4225.5947" cy="1911.2144" r="20" fill="rgb(255, 150, 0)"/>
<circle cx ="4761.311" cy="1914.6139" r="20" fill="rgb(255, 158, 0)"/>
<circle cx ="4633.5566" cy="1911.5787" r="20" fill="rgb(255, 157, 0)"/>
<circle cx ="4753.8936" cy="2183.4194" r="20" fill="rgb(255, 165, 0)"/>
<circle cx ="4898.5347" cy="2029.2266" r="20" fill="rgb(255, 166, 0)"/>
<circle cx ="4650.838" cy="2056.3015" r="20" fill="rgb(255, 163, 0)"/>
<circle cx ="4720.1206" cy="1910.6074" r="20" fill="rgb(255, 157, 0)"/>
<circle cx ="4043.7083" cy="1028.9161" r="20" fill="rgb(255, 165, 0)"/>
<circle cx ="5013.6636" cy="1936.3466" r="20" fill="rgb(255, 167, 0)"/>
<circle cx ="4979.89" cy="1991.1033" r="20" fill="rgb(255, 165, 0)"/>
<circle cx ="4669.855" cy="1962.693" r="20" fill="rgb(255, 151, 0)"/>
<circle cx ="4894.747" cy="1822.0983" r="20" fill="rgb(255, 157, 0)"/>
<circle cx ="4937.8315" cy="1899.8016" r="20" fill="rgb(255, 172, 0)"/>
<circle cx ="3986.499" cy="1108.5623" r="20" fill="rgb(255, 177, 0)"/>
<circle cx ="4683.743" cy="2014.7787" r="20" fill="rgb(255, 152, 0)"/>
<circle cx ="5312.178" cy="1841.7671" r="20" fill="rgb(255, 163, 0)"/>
<circle cx ="4615.5654" cy="1636.3386" r="20" fill="rgb(255, 155, 0)"/>
<circle cx ="4106.126" cy="1171.5748" r="20" fill="rgb(255, 178, 0)"/>
<circle cx ="3746.693" cy="1011.06866" r="20" fill="rgb(255, 207, 0)"/>
<circle cx ="4910.8447" cy="1950.0662" r="20" fill="rgb(255, 169, 0)"/>
<circle cx ="5087.76" cy="1827.8047" r="20" fill="rgb(255, 176, 0)"/>
<circle cx ="4699.9194" cy="1817.1205" r="20" fill="rgb(255, 159, 0)"/>
<circle cx ="5218.828" cy="1846.8663" r="20" fill="rgb(255, 166, 0)"/>
<circle cx ="5292.214" cy="1726.7903" r="20" fill="rgb(255, 170, 0)"/>
<circle cx ="4846.77" cy="1518.2051" r="20" fill="rgb(255, 147, 0)"/>
<circle cx ="4877.0713" cy="1478.989" r="20" fill="rgb(255, 136, 0)"/>
<circle cx ="4820.8877" cy="1421.3185" r="20" fill="rgb(255, 142, 0)"/>
<circle cx ="4877.7026" cy="1538.1166" r="20" fill="rgb(255, 143, 0)"/>
<circle cx ="3756.32" cy="1304.1564" r="20" fill="rgb(255, 159, 0)"/>
<circle cx ="4857.3438" cy="1462.477" r="20" fill="rgb(255, 141, 0)"/>
<circle cx ="4793.7427" cy="1435.4023" r="20" fill="rgb(255, 147, 0)"/>
<circle cx ="4883.226" cy="1444.2654" r="20" fill="rgb(255, 141, 0)"/>
<circle cx ="4840.615" cy="1473.4042" r="20" fill="rgb(255, 142, 0)"/>
<circle cx ="4857.0283" cy="1418.6476" r="20" fill="rgb(255, 147, 0)"/>
<circle cx ="4789.3237" cy="1528.7678" r="20" fill="rgb(255, 143, 0)"/>
<circle cx ="4911.318" cy="1480.2032" r="20" fill="rgb(255, 146, 0)"/>
<circle cx ="4970.027" cy="1835.8177" r="20" fill="rgb(255, 157, 0)"/>
<circle cx ="4806.684" cy="1463.9341" r="20" fill="rgb(255, 141, 0)"/>
<circle cx ="4849.137" cy="1489.9161" r="20" fill="rgb(255, 139, 0)"/>
<circle cx ="4868.549" cy="1489.9161" r="20" fill="rgb(255, 139, 0)"/>
<circle cx ="4830.436" cy="1535.6882" r="20" fill="rgb(255, 141, 0)"/>
<circle cx ="4866.4976" cy="1506.5496" r="20" fill="rgb(255, 144, 0)"/>
<circle cx ="4779.697" cy="1472.4329" r="20" fill="rgb(255, 151, 0)"/>
<circle cx ="5036.3105" cy="1701.4153" r="20" fill="rgb(255, 153, 0)"/>
<circle cx ="4100.2075" cy="981.6871" r="20" fill="rgb(255, 163, 0)"/>
<circle cx ="5095.0195" cy="1723.5121" r="20" fill="rgb(255, 163, 0)"/>
<circle cx ="4954.0083" cy="1538.845" r="20" fill="rgb(255, 147, 0)"/>
<circle cx ="4850.242" cy="1999.9664" r="20" fill="rgb(255, 160, 0)"/>
<circle cx ="4801.476" cy="1865.928" r="20" fill="rgb(255, 153, 0)"/>
<circle cx ="4732.5884" cy="1977.5052" r="20" fill="rgb(255, 150, 0)"/>
<circle cx ="4753.8936" cy="2183.4194" r="20" fill="rgb(255, 166, 0)"/>
<circle cx ="4462.323" cy="1530.7104" r="20" fill="rgb(255, 153, 0)"/>
<circle cx ="4651.0747" cy="2062.2505" r="20" fill="rgb(255, 153, 0)"/>
<circle cx ="1553.878" cy="1313.9907" r="20" fill="rgb(255, 156, 0)"/>
<circle cx ="1715.169" cy="1341.3083" r="20" fill="rgb(255, 149, 0)"/>
<circle cx ="1693.3112" cy="1686.2388" r="20" fill="rgb(255, 157, 0)"/>
<circle cx ="1582.9957" cy="1098.4851" r="20" fill="rgb(255, 160, 0)"/>
<circle cx ="1727.0055" cy="966.2678" r="20" fill="rgb(255, 149, 0)"/>
<circle cx ="1460.2914" cy="1109.2906" r="20" fill="rgb(255, 159, 0)"/>
<circle cx ="1531.7046" cy="1471.0973" r="20" fill="rgb(255, 155, 0)"/>
<circle cx ="1827.8517" cy="1178.3739" r="20" fill="rgb(255, 142, 0)"/>
<circle cx ="1922.1486" cy="1110.6262" r="20" fill="rgb(255, 149, 0)"/>
<circle cx ="1826.1157" cy="1155.0629" r="20" fill="rgb(255, 137, 0)"/>
<circle cx ="1818.8561" cy="1274.532" r="20" fill="rgb(255, 140, 0)"/>
<circle cx ="1851.13" cy="1250.2495" r="20" fill="rgb(255, 149, 0)"/>
<circle cx ="1484.3589" cy="1614.4844" r="20" fill="rgb(255, 152, 0)"/>
<circle cx ="1719.8247" cy="1145.957" r="20" fill="rgb(255, 154, 0)"/>
<circle cx ="1801.7327" cy="1150.5707" r="20" fill="rgb(255, 141, 0)"/>
<circle cx ="1973.8342" cy="1221.2323" r="20" fill="rgb(255, 152, 0)"/>
<circle cx ="1865.8071" cy="1179.3452" r="20" fill="rgb(255, 136, 0)"/>
<circle cx ="2727.1042" cy="454.39642" r="20" fill="rgb(255, 182, 0)"/>
<circle cx ="2018.8126" cy="1030.0089" r="20" fill="rgb(255, 148, 0)"/>
<circle cx ="2180.9717" cy="1168.054" r="20" fill="rgb(255, 154, 0)"/>
<circle cx ="2285.7632" cy="454.275" r="20" fill="rgb(255, 167, 0)"/>
<circle cx ="2398.446" cy="728.7867" r="20" fill="rgb(255, 144, 0)"/>
<circle cx ="2538.5105" cy="301.53918" r="20" fill="rgb(255, 183, 0)"/>
<circle cx ="2692.6206" cy="351.92502" r="20" fill="rgb(255, 182, 0)"/>
<circle cx ="2623.9692" cy="319.50812" r="20" fill="rgb(255, 180, 0)"/>
<circle cx ="2523.3599" cy="612.8386" r="20" fill="rgb(255, 155, 0)"/>
<circle cx ="2112.7937" cy="719.0738" r="20" fill="rgb(255, 143, 0)"/>
<circle cx ="2562.341" cy="267.78674" r="20" fill="rgb(255, 193, 0)"/>
<circle cx ="2168.267" cy="1017.5035" r="20" fill="rgb(255, 155, 0)"/>
<circle cx ="2737.2834" cy="367.22287" r="20" fill="rgb(255, 191, 0)"/>
<circle cx ="2134.5728" cy="1206.0557" r="20" fill="rgb(255, 147, 0)"/>
<circle cx ="2290.1033" cy="814.5033" r="20" fill="rgb(255, 148, 0)"/>
<circle cx ="1930.1973" cy="923.4095" r="20" fill="rgb(255, 149, 0)"/>
<circle cx ="2454.4717" cy="576.77936" r="20" fill="rgb(255, 158, 0)"/>
<circle cx ="2604.8733" cy="425.25763" r="20" fill="rgb(255, 173, 0)"/>
<circle cx ="2327.033" cy="1721.3267" r="20" fill="rgb(255, 161, 0)"/>
<circle cx ="2744.0696" cy="1731.5253" r="20" fill="rgb(255, 161, 0)"/>
<circle cx ="2362.2266" cy="1597.9725" r="20" fill="rgb(255, 160, 0)"/>
<circle cx ="2372.406" cy="1797.0875" r="20" fill="rgb(255, 160, 0)"/>
<circle cx ="2479.723" cy="1649.2081" r="20" fill="rgb(255, 161, 0)"/>
<circle cx ="2336.8967" cy="1782.3966" r="20" fill="rgb(255, 164, 0)"/>
<circle cx ="1875.6709" cy="1381.3741" r="20" fill="rgb(255, 155, 0)"/>
<circle cx ="1846.4744" cy="1707.243" r="20" fill="rgb(255, 160, 0)"/>
<circle cx ="2549.6367" cy="1998.8737" r="20" fill="rgb(255, 168, 0)"/>
<circle cx ="2113.8987" cy="1368.626" r="20" fill="rgb(255, 157, 0)"/>
<circle cx ="2888.316" cy="1757.7502" r="20" fill="rgb(255, 165, 0)"/>
<circle cx ="1829.5876" cy="1678.2255" r="20" fill="rgb(255, 153, 0)"/>
<circle cx ="2339.4219" cy="1402.6212" r="20" fill="rgb(255, 155, 0)"/>
<circle cx ="2203.5398" cy="1634.396" r="20" fill="rgb(255, 150, 0)"/>
<circle cx ="1079.5532" cy="1000.26306" r="20" fill="rgb(255, 161, 0)"/>
<circle cx ="1441.8265" cy="561.23865" r="20" fill="rgb(255, 163, 0)"/>
<circle cx ="1313.2042" cy="371.7151" r="20" fill="rgb(255, 184, 0)"/>
<circle cx ="1631.9196" cy="703.8973" r="20" fill="rgb(255, 151, 0)"/>
<circle cx ="1330.3275" cy="425.62186" r="20" fill="rgb(255, 166, 0)"/>
<circle cx ="907.6885" cy="639.0635" r="20" fill="rgb(255, 186, 0)"/>
<circle cx ="1388.5627" cy="930.8156" r="20" fill="rgb(255, 160, 0)"/>
<circle cx ="1077.7383" cy="691.02765" r="20" fill="rgb(255, 158, 0)"/>
<circle cx ="918.8936" cy="794.956" r="20" fill="rgb(255, 156, 0)"/>
<circle cx ="989.43866" cy="549.34033" r="20" fill="rgb(255, 181, 0)"/>
<circle cx ="967.344" cy="802.9692" r="20" fill="rgb(255, 154, 0)"/>
<circle cx ="1312.3362" cy="807.0972" r="20" fill="rgb(255, 151, 0)"/>
<circle cx ="1352.8956" cy="835.3861" r="20" fill="rgb(255, 148, 0)"/>
<circle cx ="801.6341" cy="746.14856" r="20" fill="rgb(255, 178, 0)"/>
<circle cx ="1159.015" cy="619.2734" r="20" fill="rgb(255, 148, 0)"/>
<circle cx ="1089.6536" cy="540.59863" r="20" fill="rgb(255, 175, 0)"/>
<circle cx ="1028.0254" cy="983.7511" r="20" fill="rgb(255, 160, 0)"/>
<circle cx ="1378.9357" cy="883.9507" r="20" fill="rgb(255, 151, 0)"/>
<circle cx ="1564.6097" cy="298.5039" r="20" fill="rgb(255, 168, 0)"/>
<circle cx ="1084.7612" cy="1049.3134" r="20" fill="rgb(255, 152, 0)"/>
<circle cx ="1362.0492" cy="485.35638" r="20" fill="rgb(255, 150, 0)"/>
<circle cx ="1076.7125" cy="653.2687" r="20" fill="rgb(255, 160, 0)"/>
<circle cx ="1529.9684" cy="429.99268" r="20" fill="rgb(255, 152, 0)"/>
<circle cx ="1518.3688" cy="453.91074" r="20" fill="rgb(255, 148, 0)"/>
<circle cx ="1140.0768" cy="856.02606" r="20" fill="rgb(255, 152, 0)"/>
<circle cx ="1164.1442" cy="800.2981" r="20" fill="rgb(255, 156, 0)"/>
<circle cx ="2278.977" cy="43.175255" r="20" fill="rgb(255, 157, 0)"/>
<circle cx ="2394.8953" cy="270.82202" r="20" fill="rgb(255, 183, 0)"/>
<circle cx ="1650.0687" cy="357.50995" r="20" fill="rgb(255, 160, 0)"/>
<circle cx ="1925.6206" cy="421.25104" r="20" fill="rgb(255, 158, 0)"/>
<circle cx ="1681.8691" cy="309.9166" r="20" fill="rgb(255, 153, 0)"/>
<circle cx ="2016.6031" cy="579.4504" r="20" fill="rgb(255, 159, 0)"/>
<circle cx ="2356.5452" cy="136.54079" r="20" fill="rgb(255, 158, 0)"/>
<circle cx ="2431.1936" cy="186.31955" r="20" fill="rgb(255, 158, 0)"/>
<circle cx ="2065.2114" cy="509.63873" r="20" fill="rgb(255, 165, 0)"/>
<circle cx ="2105.613" cy="324.72882" r="20" fill="rgb(255, 165, 0)"/>
<circle cx ="2306.3586" cy="326.42856" r="20" fill="rgb(255, 162, 0)"/>
<circle cx ="2488.7185" cy="137.6335" r="20" fill="rgb(255, 164, 0)"/>
<circle cx ="2357.8867" cy="69.7644" r="20" fill="rgb(255, 159, 0)"/>
<circle cx ="2502.212" cy="235.00562" r="20" fill="rgb(255, 188, 0)"/>
<circle cx ="2135.3618" cy="406.4388" r="20" fill="rgb(255, 158, 0)"/>
<circle cx ="1988.7482" cy="150.74596" r="20" fill="rgb(255, 162, 0)"/>
</svg>